<?xml version="1.0" standalone="no"?>
<!DOCTYPE svg PUBLIC "-//W3C//DTD SVG 20010904//EN"
 "http://www.w3.org/TR/2001/REC-SVG-20010904/DTD/svg10.dtd">
<svg version="1.0" xmlns="http://www.w3.org/2000/svg"
 width="1000.000000pt" height="1000.000000pt" viewBox="0 0 1000.000000 1000.000000"
 preserveAspectRatio="xMidYMid meet">

<g transform="translate(0.000000,1000.000000) scale(0.100000,-0.100000)"
fill="#000000" stroke="none">
<path d="M4655 9939 c-417 -32 -842 -116 -1217 -240 -403 -134 -833 -345
-1193 -584 -519 -346 -1014 -841 -1360 -1360 -236 -355 -447 -784 -580 -1180
-256 -764 -320 -1600 -184 -2405 252 -1496 1188 -2797 2534 -3522 563 -304
1160 -487 1840 -565 191 -22 766 -25 955 -5 412 43 751 116 1119 238 1473 492
2641 1664 3126 3137 109 331 177 647 221 1017 21 183 30 691 15 890 -130 1717
-1107 3210 -2631 4023 -533 283 -1165 474 -1800 542 -174 19 -676 27 -845 14z
m762 -135 c1326 -137 2361 -943 2483 -1934 21 -174 8 -420 -31 -574 l-11 -46
-255 0 c-167 0 -252 -3 -248 -10 3 -5 -3 -10 -14 -10 -28 0 -52 -11 -45 -21 3
-5 -9 -9 -25 -9 -17 0 -31 -4 -31 -10 0 -6 -33 -10 -77 -10 -74 -1 -77 -2 -48
-15 l30 -13 -38 -1 c-21 -1 -36 -5 -33 -10 7 -11 -17 -21 -50 -21 -14 0 -22
-4 -19 -10 3 -5 1 -10 -5 -10 -6 0 -9 -4 -6 -9 7 -11 -22 -23 -35 -15 -5 3 -9
11 -9 19 0 7 -7 16 -16 19 -23 9 -36 7 -29 -4 4 -6 -11 -10 -37 -10 -31 0 -39
-3 -28 -10 13 -9 13 -10 0 -10 -8 -1 -1 -7 15 -15 l30 -13 -45 -1 c-33 -1 -41
-4 -30 -11 11 -7 0 -10 -37 -10 -29 0 -53 5 -53 10 0 6 -12 10 -26 10 -14 0
-32 7 -40 15 -9 8 -33 15 -55 15 -21 0 -39 4 -39 9 0 4 -28 14 -62 20 -108 20
-118 23 -118 32 0 5 -17 9 -39 9 -22 0 -44 6 -51 15 -7 8 -19 15 -26 15 -8 0
-14 4 -14 9 0 7 -35 15 -165 38 -26 5 -22 -1 35 -44 196 -150 326 -369 375
-632 20 -110 20 -350 0 -467 -78 -443 -382 -779 -852 -941 -46 -15 -83 -32
-83 -36 0 -11 267 -404 280 -412 5 -3 12 6 16 20 3 14 10 25 15 25 5 0 9 9 9
20 0 12 6 20 13 19 27 -3 37 2 37 19 0 10 12 25 28 33 32 17 48 28 70 51 9 10
31 23 49 29 18 6 33 15 33 20 0 6 5 7 10 4 6 -4 29 3 51 15 23 11 48 18 58 15
9 -2 39 7 66 21 48 24 73 30 156 38 20 2 42 7 48 10 18 12 131 15 137 4 3 -5
13 -7 21 -4 8 3 27 -3 43 -14 34 -24 40 -25 40 -5 0 23 10 19 75 -32 33 -26
67 -46 77 -45 23 4 296 -269 396 -395 152 -193 267 -384 366 -608 73 -163 183
-508 147 -455 -14 20 -14 18 8 -85 44 -202 55 -321 56 -583 0 -138 3 -252 6
-252 9 0 -19 -193 -47 -320 -34 -154 -105 -369 -170 -515 -144 -326 -323 -586
-578 -840 -613 -611 -1485 -898 -2337 -770 -874 131 -1639 681 -2039 1466
-320 628 -388 1348 -191 2021 124 420 348 808 646 1117 135 139 268 258 273
243 2 -6 38 16 80 49 67 51 77 56 80 39 4 -25 7 -25 43 1 16 11 29 15 29 9 0
-7 6 -8 19 0 27 14 28 13 35 -16 7 -25 8 -25 31 -10 24 16 25 15 25 -4 0 -14
6 -20 16 -18 9 2 21 -6 28 -16 6 -11 19 -28 29 -38 16 -17 17 30 15 1014 l-3
1033 -300 37 c-165 20 -301 37 -302 38 -2 0 -3 42 -3 93 0 50 -4 87 -8 82 -6
-10 -56 -35 -68 -35 -3 0 -2 6 1 13 4 6 0 4 -8 -6 -9 -11 -21 -15 -32 -11 -13
5 -14 9 -3 15 9 6 2 9 -19 9 -17 0 -35 -4 -38 -10 -3 -5 -15 -10 -26 -10 -12
0 -17 4 -13 11 3 6 -1 10 -12 9 -11 -1 -37 -2 -59 -1 -31 1 -37 4 -25 12 11 8
7 9 -15 3 -16 -4 -193 -9 -392 -11 l-362 -4 -11 38 c-46 163 -58 481 -26 660
88 489 377 925 837 1263 648 477 1543 698 2446 604z m1603 -2744 c12 -8 9 -10
-12 -10 -16 0 -28 5 -28 10 0 13 20 13 40 0z"/>
<path d="M6728 7073 c7 -3 16 -2 19 1 4 3 -2 6 -13 5 -11 0 -14 -3 -6 -6z"/>
<path d="M4840 7049 c-91 -5 -241 -17 -335 -27 l-170 -17 -3 -776 -2 -777 217
-7 c403 -14 653 12 893 91 299 99 488 280 555 529 22 82 30 253 16 345 -34
221 -137 387 -307 496 -193 124 -453 166 -864 143z m475 -639 c-4 -6 14 -11
47 -11 49 -2 50 -2 18 -9 -30 -6 -26 -8 30 -10 133 -5 127 -18 -10 -20 -104
-3 -122 -5 -80 -10 31 -4 -37 -7 -155 -6 -166 0 -187 1 -100 6 l110 6 -108 2
c-105 2 -132 13 -67 27 17 4 30 10 30 15 0 12 45 17 178 18 73 1 111 -2 107
-8z m109 -89 c90 -8 103 -30 19 -33 -44 -1 -50 -2 -23 -6 l35 -5 -30 -7 c-26
-7 -23 -8 20 -9 28 -1 68 -6 90 -10 28 -6 -13 -10 -140 -12 -131 -2 -162 -4
-115 -9 l65 -7 -55 -3 c-36 -2 -9 -6 79 -11 73 -5 152 -14 175 -21 l41 -13
-80 -6 c-56 -4 -66 -6 -35 -8 25 -1 63 -6 85 -10 l40 -9 -35 -2 c-33 -2 -33
-3 -10 -10 20 -7 16 -8 -22 -9 -54 -1 -66 -20 -15 -22 27 -2 28 -3 6 -6 -23
-4 -25 -7 -23 -55 2 -28 8 -55 15 -59 8 -5 4 -9 -12 -12 -17 -3 -12 -5 16 -7
81 -4 93 -18 18 -19 -42 -1 -73 -5 -73 -11 0 -5 -7 -10 -15 -10 -9 0 -18 -7
-21 -15 -4 -8 -15 -15 -25 -15 -10 0 -19 -4 -19 -9 0 -5 -8 -11 -17 -14 -10
-2 14 -7 52 -11 39 -4 75 -9 80 -11 6 -2 -106 -4 -247 -4 -166 -1 -258 3 -258
9 0 6 10 11 23 12 12 0 2 4 -23 7 -42 6 -40 7 38 14 78 8 82 10 82 33 0 23 -3
24 -60 24 -47 0 -60 3 -60 15 0 8 -10 16 -22 16 l-23 2 23 4 c12 2 22 9 22 14
0 5 23 9 50 9 28 0 50 5 50 10 0 6 -34 10 -81 10 -51 0 -78 4 -74 10 3 6 39
10 79 10 53 0 77 4 86 15 11 13 1 15 -79 15 -90 0 -120 12 -61 25 23 5 30 12
30 30 0 13 6 26 13 28 6 3 -3 6 -21 6 -29 1 -33 4 -30 24 2 18 11 23 53 28
l50 6 -45 3 -45 3 55 7 55 7 -47 1 c-35 2 -48 6 -48 17 0 8 5 15 11 15 5 0 7
5 4 10 -3 6 -1 10 4 10 6 0 11 5 11 10 0 6 -24 10 -52 10 -38 0 -49 3 -38 10
16 11 391 12 504 1z m-108 -498 c89 -6 101 -9 64 -14 l-45 -6 48 -1 c26 -1 47
-6 47 -12 0 -5 -7 -10 -15 -10 -8 0 -15 -4 -15 -10 0 -6 -72 -11 -192 -12
l-193 -2 175 -7 c96 -3 192 -7 213 -8 23 -1 36 -5 32 -11 -7 -11 -412 -14
-439 -4 -9 3 -16 15 -16 25 0 15 7 19 31 19 17 0 28 4 24 10 -3 6 -24 10 -46
10 -46 0 -56 26 -11 33 49 7 226 7 338 0z m8 -128 c-10 -8 -33 -15 -51 -15
-17 0 -35 -4 -38 -10 -15 -25 -171 -8 -195 21 -3 3 -12 9 -20 12 -8 3 61 6
154 6 151 1 168 -1 150 -14z m-61 -52 c-56 -2 -151 -2 -210 0 -59 1 -13 3 102
3 116 0 164 -2 108 -3z m42 -25 c-80 -14 -295 -22 -295 -10 0 6 -8 13 -17 15
-10 3 68 5 172 5 145 -1 178 -3 140 -10z"/>
<path d="M4330 4789 c0 -137 3 -249 8 -247 47 23 62 33 62 43 0 7 21 30 46 51
25 21 60 51 78 66 17 15 49 35 71 45 22 10 42 20 45 23 3 3 21 14 40 24 19 11
38 23 41 28 3 5 53 18 111 28 101 18 178 18 178 -1 0 -5 13 -9 30 -9 16 0 55
-7 86 -15 32 -8 59 -13 61 -11 3 2 -29 54 -69 115 l-73 111 -357 0 -358 0 0
-251z"/>
</g>
</svg>
